<svg aria-hidden="true" style="position: absolute; width: 0; height: 0; overflow: hidden;" version="1.1" xmlns="http://www.w3.org/2000/svg" xmlns:xlink="http://www.w3.org/1999/xlink">
<defs>
<symbol id="icon-AMEX" viewBox="0 0 145 32">
<path d="M24.113 18.121l-5.163-12.713-5.133 12.713h10.296zM73.639 31.88l-0.030-24.964-10.947 24.964h-6.627l-10.962-24.993v24.993h-15.34l-2.899-7.111h-15.71l-2.929 7.111h-8.195l13.506-31.88h11.213l12.825 30.177v-30.177h12.308l9.867 21.632 9.098-21.632h12.559v31.88h-7.737zM93.388 25.352v-6.349h16.568v-6.499h-16.568v-5.796h18.92l8.255 9.292-8.624 9.352h-18.55zM144.497 32h-9.808l-9.29-10.562-9.66 10.562h-29.882v-31.881h30.34l9.29 10.458 9.601-10.458h9.852l-14.66 15.94 14.216 15.94z"></path>
</symbol>
<symbol id="icon-ASTROPAY" viewBox="0 0 108 32">
<path d="M23.317 30.135l0.467-0.263c0.249 0.526 0.767 0.789 1.4 0.789 0.716 0 1.125-0.313 1.125-0.789 0-0.367-0.249-0.576-0.825-0.734l-0.741-0.183c-0.85-0.184-1.291-0.576-1.291-1.181 0-0.734 0.633-1.26 1.675-1.26 0.85 0 1.452 0.342 1.675 0.814l-0.467 0.263c-0.218-0.367-0.658-0.576-1.234-0.576-0.658 0-1.068 0.263-1.068 0.734 0 0.342 0.218 0.551 0.824 0.71l0.741 0.183c0.907 0.208 1.291 0.605 1.291 1.206 0 0.759-0.633 1.315-1.727 1.315-0.913-0.005-1.571-0.397-1.846-1.027zM27.952 26.642h0.576v4.435h-0.576v-4.435zM34.754 31.082v-4.44h-0.653l-1.809 2.704-1.81-2.704h-0.601v4.435h0.576v-3.592l1.618 2.441h0.493l1.618-2.441v3.597h0.57zM39.587 28.011c0 0.838-0.575 1.364-1.566 1.364h-1.317v1.707h-0.575v-4.44h1.892c1.016 0 1.566 0.526 1.566 1.369zM38.98 28.011c0-0.605-0.301-0.868-1.016-0.868h-1.26v1.732h1.26c0.716 0 1.016-0.263 1.016-0.863zM43.647 31.082v-0.526h-2.468v-3.914h-0.575v4.435h3.044v0.005zM47.789 30.556v0.526h-3.235v-4.44h3.184v0.526h-2.577v1.444h2.468v0.501h-2.468v1.468l2.629-0.025zM49.49 30.293h-0.575l-0.327 1.707h0.441l0.461-1.707zM56.925 26.642v4.435h-0.575v-3.592l-1.618 2.441h-0.467l-1.618-2.441v3.597h-0.575v-4.44h0.601l1.809 2.704 1.784-2.704h0.658zM60.435 26.538c-1.426 0-2.385 1.022-2.385 2.312 0 1.285 0.959 2.312 2.385 2.312s2.385-1.022 2.385-2.312c0-1.285-0.985-2.312-2.385-2.312zM60.435 27.064c1.042 0 1.758 0.759 1.758 1.786 0 1.022-0.715 1.786-1.758 1.786s-1.758-0.759-1.758-1.786 0.716-1.786 1.758-1.786zM67.788 26.642v4.435h-0.55l-2.769-3.542v3.542h-0.575v-4.435h0.55l2.769 3.542v-3.542h0.576zM72.423 31.082v-0.526l-2.634 0.025v-1.468h2.468v-0.501h-2.468v-1.444h2.577v-0.526h-3.183v4.435h3.241v0.005zM77.084 26.642l-1.784 2.6v1.836h-0.576v-1.836l-1.784-2.6h0.658l1.426 2.099 1.426-2.099h0.633zM77.115 30.373c-0.218 0-0.384 0.159-0.384 0.367 0 0.238 0.135 0.392 0.384 0.392s0.41-0.159 0.41-0.392c0-0.213-0.166-0.367-0.41-0.367z"></path>
<path d="M72.231 0.551c2.634 0 4.661 0.605 6.009 1.756 1.26 1.077 1.975 2.679 1.975 4.49 0 1.865-0.576 3.389-1.727 4.515-1.483 1.469-3.811 2.282-6.559 2.282-0.41 0-0.85-0.025-1.26-0.055v7.377h-4.060v-19.895l0.633-0.104c1.529-0.233 3.204-0.367 4.988-0.367zM71.982 10.185c1.535 0 4.143-0.422 4.143-3.255 0-2.466-2.084-2.992-3.842-2.992-0.684 0-1.234 0.025-1.618 0.079v6.092c0.358 0.050 0.798 0.074 1.317 0.074zM0 20.946l7.212-20.262h4.117l7.217 20.262h-4.335l-2.084-5.904h-5.849l-2.032 5.904h-4.246zM8.913 7.219l-1.592 4.46h3.785l-1.592-4.435c-0.057-0.159-0.104-0.313-0.15-0.471s-0.098-0.313-0.15-0.471c-0.067 0.253-0.15 0.486-0.233 0.729-0.021 0.064-0.041 0.124-0.067 0.189zM23.534 10.106c0 0.551 0.218 0.893 2.167 1.627 1.784 0.63 4.169 1.811 4.169 4.698 0 2.863-2.416 4.802-6.009 4.802-1.592 0-3.183-0.392-4.361-1.052l-0.524-0.288 1.099-3.279 0.825 0.471c0.684 0.392 1.892 0.838 3.018 0.838 0.741 0 1.95-0.159 1.95-1.26 0-0.576-0.135-1.077-2.084-1.761s-4.252-2.019-4.252-4.515c0-2.704 2.359-4.673 5.595-4.673 1.483 0 2.909 0.342 3.868 0.943l0.493 0.313-1.099 3.205-0.825-0.501c-0.441-0.238-1.317-0.685-2.468-0.685-0.954 0.015-1.561 0.432-1.561 1.116zM36.263 2.495l-4.029 1.181v2.312h-2.193v3.334h2.193v6.613c0 1.836 0.384 3.175 1.182 4.043 0.767 0.814 1.975 1.26 3.318 1.26 1.234 0 2.11-0.238 2.525-0.367l0.55-0.183-0.218-3.359-0.933 0.263c-0.275 0.079-0.601 0.129-1.26 0.129-0.493 0-1.151 0-1.151-1.89v-6.514h3.676v-3.334h-3.676l0.016-3.488zM49.023 5.775l0.741 0.079v3.86l-0.933-0.184c-0.192-0.025-0.384-0.025-0.715-0.025-1.374 0-2.385 0.972-2.691 2.52-0.057 0.263-0.083 0.63-0.083 0.997v7.928h-4.086v-10.007c0-1.682-0.026-2.992-0.109-4.148l-0.057-0.789h3.811l0.057 1.101c0.876-0.893 2.058-1.389 3.349-1.389 0.275 0 0.498 0.030 0.716 0.055zM57.252 5.72c-4.552 0-7.762 3.23-7.762 7.874 0 4.515 3.101 7.665 7.518 7.665 3.759 0 7.793-2.466 7.793-7.903-0.005-4.51-3.106-7.635-7.549-7.635zM60.653 13.44c0 2.6-1.483 4.515-3.51 4.515-2.032 0-3.484-1.865-3.484-4.435 0-1.652 0.741-4.49 3.541-4.49 2.712 0 3.453 2.887 3.453 4.411zM92.67 16.982v-5.041c0-4.019-2.167-6.221-6.118-6.221-1.841 0-3.733 0.471-5.076 1.285l-0.524 0.313 1.099 3.096 0.824-0.551c0.85-0.551 2.058-0.868 3.266-0.868 0.824 0 1.426 0.184 1.81 0.551 0.332 0.318 0.524 0.759 0.576 1.364-3.183 0.079-5.543 0.814-6.969 2.178-0.985 0.943-1.483 2.153-1.483 3.572 0 2.282 1.758 4.594 5.076 4.594 1.426 0 2.769-0.447 3.811-1.206l0.109 0.893h3.868l-0.135-0.839c-0.083-0.809-0.135-1.86-0.135-3.121zM85.836 17.98c-0.601 0-1.618-0.208-1.618-1.602 0-0.526 0.166-0.972 0.524-1.285 0.467-0.447 1.535-0.972 3.925-1.022v1.603c0 0.104 0 0.342-0.083 0.551-0.275 0.789-1.182 1.756-2.748 1.756zM100.981 14.383l2.966-8.399h4.361l-4.2 10.577c-1.727 4.386-3.044 7.060-5.045 8.742-1.649 1.34-3.101 1.652-3.51 1.732l-0.684 0.104-1.042-3.359 0.716-0.208c0.327-0.079 1.151-0.392 1.975-1.052l0.026-0.025c0.715-0.551 1.426-1.469 1.918-2.466 0.057-0.079 0.109-0.208 0.135-0.288-0.016-0.025-0.026-0.060-0.047-0.109s-0.047-0.114-0.088-0.208l-0.026-0.025-5.594-13.44h4.464l3.235 8.454c0.057 0.184 0.135 0.392 0.218 0.605 0.041-0.104 0.073-0.208 0.109-0.318 0.041-0.104 0.073-0.208 0.114-0.318z"></path>
<path d="M14.948 6.276c2.634-2.575 7.103-4.123 11.962-4.123 1.893 0 3.733 0.238 5.486 0.685l0.135 0.025 3.101-0.893-1.4-0.501c-2.655-0.967-5.698-1.469-8.856-1.469-4.552 0-8.835 1.052-11.988 2.967l-0.332 0.208 1.317 3.676 0.575-0.575z"></path>
</symbol>
<symbol id="icon-BINANCE" viewBox="0 0 148 32">
<path d="M9.041 13.444l5.741-6.213 5.741 6.219 3.343-3.618-9.084-9.831-9.084 9.831 3.343 3.612z"></path>
<path d="M3.34 12.381l-3.34 3.615 3.34 3.615 3.34-3.615-3.34-3.615z"></path>
<path d="M9.041 18.55l5.741 6.213 5.741-6.213 3.343 3.612-9.084 9.838-9.090-9.838 3.349-3.612z"></path>
<path d="M26.22 12.383l-3.34 3.615 3.34 3.615 3.34-3.615-3.34-3.615z"></path>
<path d="M18.172 16l-3.39-3.669-3.396 3.669 3.396 3.669 3.39-3.669z"></path>
<path d="M34.771 7.752h7.268c1.804 0 3.167 0.502 4.090 1.501 0.717 0.776 1.075 1.736 1.075 2.887v0.051c0 0.483-0.053 0.916-0.164 1.285s-0.259 0.706-0.447 1.005-0.4 0.56-0.646 0.788c-0.247 0.229-0.505 0.42-0.787 0.579 0.905 0.369 1.622 0.878 2.139 1.514s0.782 1.526 0.782 2.652v0.051c0 0.776-0.135 1.456-0.411 2.035s-0.67 1.068-1.187 1.456c-0.517 0.388-1.134 0.681-1.857 0.871s-1.522 0.293-2.403 0.293h-7.45v-16.967zM41.311 14.614c0.764 0 1.369-0.14 1.816-0.426 0.446-0.28 0.67-0.738 0.67-1.367v-0.051c0-0.566-0.194-0.998-0.582-1.297s-0.946-0.451-1.68-0.451h-3.402v3.587c-0.006 0.006 3.179 0.006 3.179 0.006zM42.227 21.45c0.764 0 1.357-0.146 1.792-0.445s0.652-0.763 0.652-1.393v-0.051c0-0.566-0.2-1.011-0.605-1.348-0.405-0.331-1.052-0.496-1.951-0.496h-3.984v3.733h4.095z"></path>
<path d="M52.398 7.752h3.449v16.967h-3.449v-16.967z"></path>
<path d="M61.071 7.752h3.179l7.345 10.448v-10.448h3.402v16.967h-2.932l-7.591-10.785v10.785h-3.402v-16.967z"></path>
<path d="M85.444 7.631h3.179l6.722 17.087h-3.608l-1.434-3.803h-6.628l-1.434 3.803h-3.514l6.716-17.087zM89.069 17.622l-2.086-5.501-2.080 5.501h4.166z"></path>
<path d="M99.064 7.752h3.179l7.345 10.448v-10.448h3.402v16.967h-2.932l-7.591-10.785v10.785h-3.402v-16.967z"></path>
<path d="M125.411 25.011c-1.152 0-2.215-0.229-3.202-0.68s-1.839-1.068-2.55-1.857c-0.717-0.782-1.275-1.711-1.68-2.773-0.406-1.068-0.605-2.207-0.605-3.415v-0.051c0-1.215 0.2-2.347 0.605-3.409 0.405-1.056 0.964-1.99 1.68-2.785 0.717-0.801 1.575-1.431 2.574-1.889s2.104-0.693 3.314-0.693c0.729 0 1.398 0.064 2.004 0.191s1.152 0.305 1.645 0.534c0.494 0.229 0.946 0.502 1.369 0.827 0.417 0.324 0.805 0.68 1.163 1.068l-2.192 2.741c-0.611-0.598-1.234-1.068-1.868-1.405s-1.346-0.509-2.139-0.509c-0.658 0-1.263 0.14-1.827 0.413-0.558 0.273-1.040 0.655-1.445 1.138s-0.717 1.049-0.94 1.685-0.335 1.323-0.335 2.048v0.051c0 0.725 0.112 1.412 0.335 2.060s0.535 1.215 0.928 1.698c0.394 0.483 0.876 0.871 1.434 1.151 0.558 0.286 1.175 0.426 1.845 0.426 0.899 0 1.651-0.178 2.274-0.534 0.617-0.356 1.234-0.839 1.845-1.456l2.198 2.398c-0.405 0.471-0.823 0.89-1.252 1.259-0.435 0.369-0.905 0.693-1.422 0.96s-1.081 0.471-1.692 0.604c-0.617 0.134-1.305 0.203-2.062 0.203z"></path>
<path d="M135.893 7.752h11.804v3.32h-8.397v3.44h7.392v3.32h-7.392v3.561h8.508v3.32h-11.916v-16.96z"></path>
</symbol>
<symbol id="icon-BITCOIN" viewBox="0 0 150 32">
<path d="M19.43 0.479c-8.384-2.138-16.868 3.083-18.962 11.651-2.088 8.568 3.009 17.249 11.393 19.387s16.875-3.083 18.969-11.651c2.088-8.568-3.016-17.249-11.4-19.387zM22.545 13.714c-0.225 1.556-1.067 2.309-2.194 2.572 1.538 0.824 2.326 2.081 1.577 4.255-0.928 2.707-3.128 2.934-6.058 2.366l-0.703 2.927-1.717-0.44 0.703-2.87c-0.444-0.114-0.901-0.234-1.365-0.362l-0.703 2.884-1.717-0.44 0.709-2.913c-0.398-0.107-0.809-0.22-1.22-0.327l-2.234-0.568 0.855-2.010c0 0 1.266 0.341 1.246 0.32 0.484 0.128 0.703-0.199 0.789-0.419l1.12-4.596 0.179 0.050c-0.073-0.028-0.133-0.050-0.179-0.057l0.802-3.282c0.020-0.377-0.106-0.845-0.802-1.023 0.027-0.014-1.246-0.32-1.246-0.32l0.457-1.875 2.366 0.604v0.014l1.1 0.263 0.703-2.884 1.717 0.433-0.689 2.827c0.464 0.107 0.928 0.213 1.379 0.327l0.683-2.806 1.717 0.433-0.702 2.884c2.154 0.767 3.745 1.911 3.427 4.035z"></path>
<path d="M14.287 16.186l-0.948 3.865c1.167 0.298 4.752 1.471 5.289-0.703 0.55-2.28-3.181-2.863-4.341-3.161z"></path>
<path d="M15.566 10.908l-0.855 3.502c0.974 0.249 3.957 1.257 4.441-0.725 0.51-2.067-2.611-2.529-3.586-2.778z"></path>
<path d="M45.862 9.679c1.266 0 2.366 0.234 3.287 0.689 0.928 0.462 1.69 1.080 2.3 1.861 0.603 0.781 1.054 1.705 1.346 2.756 0.292 1.059 0.431 2.188 0.431 3.403 0 1.861-0.331 3.623-1.008 5.285-0.649 1.62-1.584 3.090-2.75 4.334-2.479 2.586-5.806 4.021-9.266 3.985-0.238 0-0.656-0.007-1.253-0.021-0.683-0.021-1.359-0.078-2.035-0.178-0.822-0.121-1.63-0.284-2.439-0.49-0.842-0.206-1.657-0.504-2.439-0.888l6.86-29.439 6.137-0.973-2.452 10.443c0.524-0.242 1.054-0.426 1.584-0.561 0.524-0.135 1.087-0.206 1.697-0.206zM40.712 27.013c0.921 0 1.796-0.234 2.612-0.689 0.822-0.455 1.531-1.073 2.121-1.84 0.597-0.774 1.061-1.641 1.405-2.614s0.517-1.996 0.517-3.034c0-1.293-0.212-2.309-0.636-3.033-0.424-0.732-1.2-1.094-2.34-1.094-0.371 0-0.848 0.071-1.445 0.206-0.59 0.135-1.147 0.426-1.604 0.852l-2.611 11.089 0.418 0.078c0.278 0.057 0.563 0.085 0.848 0.085h0.716v-0.007zM59.595 31.425h-5.866l4.951-21.291h5.899l-4.984 21.291zM62.445 7.533c-0.822 0-1.558-0.249-2.22-0.746s-0.994-1.257-0.994-2.288c0-0.568 0.113-1.101 0.331-1.598 0.219-0.49 0.524-0.931 0.895-1.293s0.802-0.654 1.286-0.874c0.49-0.213 1.014-0.32 1.564-0.32 0.815 0 1.558 0.249 2.22 0.746 0.656 0.497 0.988 1.265 0.988 2.288 0 0.568-0.113 1.101-0.331 1.606-0.219 0.49-0.517 0.931-0.888 1.293-0.378 0.369-0.815 0.661-1.286 0.867-0.497 0.22-1.027 0.327-1.564 0.32z"></path>
<path d="M69.722 4.827l6.137-0.973-1.511 6.273h6.575l-1.186 4.937h-6.535l-1.743 7.445c-0.159 0.625-0.252 1.2-0.278 1.74s0.040 1.009 0.199 1.399c0.172 0.405 0.471 0.732 0.855 0.909 0.404 0.22 0.994 0.327 1.763 0.327 0.63 0 1.246-0.064 1.843-0.185s1.193-0.291 1.803-0.504l0.437 4.618c-0.842 0.313-1.703 0.568-2.571 0.767-0.928 0.22-2.022 0.32-3.288 0.32-1.816 0-3.234-0.277-4.235-0.824-1.007-0.554-1.717-1.314-2.141-2.273-0.438-1.037-0.623-2.167-0.557-3.296 0.053-1.243 0.239-2.55 0.557-3.929l3.877-16.752zM80.672 22.921c0-1.833 0.292-3.566 0.868-5.186 0.583-1.62 1.412-3.033 2.499-4.248 1.080-1.215 2.393-2.167 3.937-2.877 1.544-0.703 3.268-1.051 5.17-1.051 1.193 0 2.253 0.114 3.188 0.348s1.789 0.533 2.558 0.909l-2.022 4.703c-0.537-0.22-1.087-0.419-1.644-0.59-0.676-0.192-1.379-0.277-2.075-0.263-1.962 0-3.506 0.689-4.659 2.060-1.147 1.378-1.723 3.225-1.723 5.548 0 1.378 0.292 2.493 0.875 3.339 0.583 0.852 1.65 1.279 3.208 1.279 1.412-0.007 2.81-0.291 4.122-0.845l0.438 4.817c-0.802 0.313-1.624 0.583-2.452 0.796-0.901 0.22-1.969 0.341-3.208 0.341-1.637 0-3.022-0.249-4.156-0.732-1.054-0.433-2.015-1.101-2.81-1.961-0.736-0.817-1.286-1.812-1.604-2.899-0.345-1.13-0.517-2.309-0.51-3.488z"></path>
<path d="M106.713 31.993c-1.399 0-2.618-0.22-3.645-0.654-0.974-0.391-1.843-1.009-2.558-1.826-0.683-0.803-1.2-1.74-1.524-2.771-0.358-1.144-0.53-2.337-0.51-3.538 0-1.62 0.259-3.239 0.769-4.859s1.273-3.076 2.28-4.376c1.001-1.293 2.234-2.351 3.678-3.183 1.451-0.824 3.115-1.236 4.991-1.236 1.372 0 2.585 0.22 3.625 0.654s1.896 1.044 2.572 1.826c0.669 0.781 1.18 1.705 1.524 2.771s0.51 2.245 0.51 3.538c0 1.62-0.245 3.239-0.749 4.859-0.484 1.591-1.239 3.069-2.22 4.369-1.001 1.321-2.253 2.401-3.665 3.176-1.451 0.838-3.148 1.25-5.077 1.25zM109.642 14.666c-0.868 0-1.637 0.256-2.293 0.767-0.663 0.511-1.213 1.165-1.663 1.946-0.457 0.796-0.795 1.67-1.014 2.572-0.219 0.867-0.325 1.755-0.331 2.65 0 1.35 0.212 2.401 0.63 3.161 0.424 0.753 1.186 1.13 2.3 1.13 0.875 0 1.637-0.256 2.3-0.767 0.656-0.512 1.206-1.158 1.657-1.947 0.451-0.781 0.789-1.641 1.014-2.572 0.219-0.931 0.331-1.819 0.331-2.65 0-1.35-0.212-2.401-0.636-3.161-0.418-0.753-1.18-1.13-2.293-1.13zM124.82 31.424h-5.866l4.951-21.291h5.906l-4.991 21.291zM127.67 7.533c-0.795 0.007-1.571-0.256-2.214-0.746-0.663-0.497-0.994-1.257-0.994-2.288 0-0.568 0.113-1.101 0.338-1.598 0.219-0.497 0.524-0.931 0.888-1.293 0.378-0.369 0.815-0.668 1.286-0.874 0.484-0.213 1.007-0.32 1.564-0.32 0.822 0 1.558 0.249 2.22 0.746s0.994 1.265 0.994 2.288c0 0.568-0.119 1.101-0.338 1.606-0.219 0.49-0.517 0.931-0.888 1.293-0.378 0.369-0.815 0.661-1.286 0.867-0.497 0.22-1.034 0.327-1.571 0.32z"></path>
<path d="M134.033 11.1c0.444-0.128 0.941-0.291 1.485-0.462 1.332-0.412 2.697-0.696 4.083-0.845 0.828-0.099 1.776-0.142 2.83-0.142 3.089 0 5.223 0.916 6.396 2.756 1.18 1.833 1.379 4.348 0.616 7.53l-2.697 11.502h-5.899l2.611-11.26c0.159-0.703 0.285-1.385 0.378-2.046 0.093-0.575 0.086-1.165-0.020-1.74-0.1-0.483-0.358-0.916-0.729-1.215-0.391-0.313-0.974-0.469-1.77-0.469-0.762 0-1.538 0.085-2.333 0.249l-3.844 16.474h-5.906l4.799-20.332z"></path>
</symbol>
<symbol id="icon-CARDANO" viewBox="0 0 155 32">
<path d="M9.254 15.879c-0.072 1.29 0.885 2.392 2.144 2.466h0.125c1.259 0 2.276-1.048 2.276-2.332 0-1.29-1.023-2.332-2.276-2.332-1.207 0-2.203 0.968-2.269 2.197z"></path>
<path d="M0.775 15.288c-0.407-0.020-0.754 0.296-0.774 0.712s0.289 0.773 0.695 0.793c0.407 0.020 0.754-0.296 0.774-0.706 0.020-0.423-0.289-0.773-0.695-0.8z"></path>
<path d="M9.11 2.347c0.361-0.188 0.505-0.645 0.321-1.015s-0.63-0.517-0.99-0.329c-0.361 0.188-0.505 0.638-0.321 1.008 0.184 0.376 0.623 0.524 0.99 0.336z"></path>
<path d="M11.425 6.473c0.557-0.289 0.787-0.988 0.505-1.566-0.282-0.571-0.964-0.806-1.528-0.517-0.557 0.289-0.787 0.988-0.505 1.566s0.964 0.806 1.528 0.517z"></path>
<path d="M3.654 9.308c0.433 0.289 1.010 0.168 1.298-0.275 0.282-0.443 0.164-1.035-0.269-1.33-0.433-0.289-1.010-0.168-1.298 0.276-0.282 0.443-0.164 1.041 0.269 1.33z"></path>
<path d="M5.037 14.865c-0.63-0.034-1.161 0.457-1.2 1.095-0.033 0.645 0.446 1.189 1.069 1.23 0.623 0.034 1.161-0.457 1.2-1.095 0.033-0.645-0.446-1.196-1.069-1.23z"></path>
<path d="M3.778 22.693c-0.459 0.242-0.649 0.813-0.413 1.29 0.236 0.47 0.794 0.665 1.259 0.423 0.459-0.242 0.649-0.813 0.413-1.29-0.236-0.47-0.8-0.665-1.259-0.423z"></path>
<path d="M8.192 12.459c0.616 0.417 1.449 0.235 1.849-0.396 0.407-0.632 0.23-1.485-0.387-1.895-0.616-0.417-1.449-0.235-1.849 0.396-0.4 0.625-0.23 1.472 0.387 1.895 0-0.007 0-0.007 0 0z"></path>
<path d="M22.212 6.378c0.524 0.349 1.233 0.202 1.574-0.343 0.341-0.538 0.197-1.263-0.334-1.613-0.524-0.349-1.233-0.202-1.574 0.336-0.341 0.544-0.197 1.27 0.334 1.619-0.007 0-0.007 0 0 0z"></path>
<path d="M24.54 2.266c0.341 0.228 0.794 0.134 1.017-0.215s0.131-0.813-0.21-1.041c-0.341-0.228-0.794-0.134-1.017 0.215s-0.125 0.813 0.21 1.041z"></path>
<path d="M22.39 13.662c-1.253-0.074-2.328 0.907-2.4 2.197-0.072 1.283 0.885 2.385 2.144 2.459 0.046 0 0.085 0 0.131 0 1.259 0 2.276-1.048 2.276-2.332 0-0.571-0.203-1.122-0.577-1.552-0.407-0.464-0.971-0.746-1.574-0.773z"></path>
<path d="M12.172 12.291c0.387 0.786 1.174 1.283 2.033 1.283 1.259 0 2.276-1.041 2.276-2.332 0-0.37-0.085-0.726-0.243-1.055-0.387-0.786-1.174-1.277-2.033-1.277-1.259 0-2.276 1.048-2.276 2.338 0 0.363 0.079 0.719 0.243 1.041z"></path>
<path d="M30.010 9.308c0.459-0.242 0.649-0.813 0.413-1.29-0.236-0.47-0.793-0.665-1.259-0.423-0.459 0.235-0.649 0.813-0.413 1.29 0.236 0.47 0.8 0.658 1.259 0.423z"></path>
<path d="M24.239 10.047c-0.662 0.343-0.925 1.162-0.59 1.841s1.135 0.947 1.797 0.605c0.662-0.343 0.925-1.162 0.59-1.841-0.328-0.672-1.134-0.941-1.797-0.605 0.007 0 0.007 0 0 0z"></path>
<path d="M16.809 1.917c0.518 0.027 0.957-0.376 0.99-0.9 0.026-0.531-0.367-0.981-0.879-1.015s-0.957 0.376-0.99 0.9c-0.033 0.531 0.361 0.981 0.879 1.015z"></path>
<path d="M16.795 7.951c0.741 0.040 1.371-0.538 1.41-1.29 0.039-0.759-0.525-1.404-1.259-1.445s-1.37 0.538-1.41 1.29c-0.039 0.759 0.525 1.404 1.259 1.445z"></path>
<path d="M9.549 21.947c0.662-0.343 0.925-1.162 0.59-1.841s-1.135-0.947-1.797-0.605c-0.662 0.343-0.925 1.163-0.59 1.841 0.334 0.672 1.135 0.948 1.797 0.605z"></path>
<path d="M17.661 9.953c-0.689 1.075-0.393 2.52 0.656 3.225s2.459 0.403 3.148-0.672 0.393-2.52-0.656-3.225c-0.367-0.249-0.8-0.383-1.246-0.383-0.761 0-1.482 0.396-1.902 1.055z"></path>
<path d="M21.622 19.703c-0.564-1.149-1.934-1.613-3.056-1.035s-1.574 1.982-1.010 3.131c0.387 0.786 1.174 1.283 2.033 1.283 0.354 0 0.708-0.087 1.023-0.255 1.121-0.578 1.567-1.975 1.010-3.124z"></path>
<path d="M25.596 19.541c-0.617-0.416-1.449-0.242-1.856 0.396-0.407 0.632-0.236 1.485 0.387 1.902 0.616 0.417 1.449 0.242 1.856-0.396 0.4-0.638 0.23-1.485-0.387-1.902z"></path>
<path d="M29.951 16.041c0.033-0.645-0.446-1.189-1.069-1.23s-1.161 0.457-1.2 1.095c-0.033 0.638 0.446 1.189 1.069 1.23 0.63 0.034 1.167-0.457 1.2-1.095z"></path>
<path d="M33.098 15.207c-0.407-0.027-0.754 0.296-0.78 0.712s0.288 0.773 0.695 0.8c0.407 0.027 0.754-0.296 0.781-0.712s-0.289-0.773-0.695-0.8z"></path>
<path d="M30.134 22.686c-0.433-0.289-1.010-0.168-1.298 0.276s-0.164 1.035 0.269 1.33c0.433 0.289 1.010 0.168 1.298-0.276s0.164-1.035-0.269-1.33z"></path>
<path d="M9.247 29.728c-0.341-0.228-0.793-0.134-1.016 0.215s-0.131 0.813 0.21 1.042 0.793 0.134 1.016-0.215c0.223-0.343 0.131-0.813-0.21-1.042z"></path>
<path d="M24.678 29.654c-0.361 0.188-0.512 0.638-0.328 1.015 0.184 0.37 0.623 0.524 0.99 0.336 0.361-0.188 0.512-0.638 0.328-1.015s-0.63-0.524-0.99-0.336c0-0.007 0-0.007 0 0z"></path>
<path d="M16.127 22.041c0.689-1.075 0.393-2.52-0.656-3.225s-2.459-0.403-3.148 0.672c-0.689 1.075-0.393 2.52 0.656 3.225 0.367 0.249 0.8 0.383 1.246 0.383 0.767 0 1.482-0.396 1.902-1.055z"></path>
<path d="M11.575 25.616c-0.525-0.349-1.233-0.202-1.574 0.336s-0.197 1.263 0.328 1.613 1.226 0.202 1.574-0.336c0.348-0.538 0.203-1.257-0.328-1.613z"></path>
<path d="M16.887 30.084c-0.518-0.027-0.957 0.376-0.99 0.9-0.026 0.531 0.367 0.981 0.879 1.015 0.518 0.027 0.958-0.376 0.99-0.9 0.026-0.531-0.367-0.988-0.879-1.015z"></path>
<path d="M16.894 24.043c-0.734-0.047-1.37 0.531-1.417 1.283s0.518 1.404 1.253 1.451c0.734 0.047 1.371-0.531 1.417-1.283v-0.007c0.046-0.753-0.518-1.398-1.253-1.445z"></path>
<path d="M22.37 25.528c-0.557 0.289-0.787 0.994-0.498 1.566 0.282 0.571 0.971 0.806 1.528 0.511 0.557-0.289 0.787-0.994 0.498-1.566-0.289-0.578-0.971-0.806-1.528-0.511z"></path>
<path d="M47.48 10.491c2.203 0 3.744 1.243 3.744 3.548h2.886c0-4.038-2.912-5.987-6.676-5.987-4.63 0-7.319 2.573-7.319 8.016 0 5.577 2.689 8.016 7.319 8.016 3.81 0 6.676-1.895 6.676-5.94h-2.774c0 2.258-1.521 3.501-3.856 3.501-3.063 0-4.479-1.74-4.479-5.349v-0.45c0.007-3.548 1.436-5.355 4.479-5.355z"></path>
<path d="M61.743 8.32l-5.889 15.494h2.912l1.213-3.366h6.912l1.246 3.366h3.043l-5.889-15.488h-3.548v-0.007zM60.858 18.003l1.541-4.247c0.308-0.833 0.859-2.641 0.971-2.956h0.112c0.111 0.316 0.662 2.143 0.971 2.956l1.541 4.247h-5.135z"></path>
<path d="M86.912 13.017c0-2.869-1.607-4.697-4.938-4.697h-7.981v15.488h2.82v-5.987h4.695l2.859 5.987h3.082l-3.233-6.437c1.79-0.719 2.695-2.251 2.695-4.354zM81.751 15.389h-4.938v-4.603h4.938c1.521 0 2.315 0.833 2.315 2.238 0 1.465-0.859 2.365-2.315 2.365z"></path>
<path d="M96.808 8.32h-6.040v15.488h6.040c4.558 0 7.338-2.439 7.338-7.747s-2.781-7.741-7.338-7.741zM101.261 16.289c-0.020 3.387-1.587 5.059-4.453 5.059h-3.22v-10.569h3.22c2.859 0 4.453 1.673 4.453 5.060v0.45z"></path>
<path d="M111.53 8.32l-5.889 15.488h2.912l1.213-3.366h6.919l1.233 3.366h3.043l-5.882-15.488h-3.548zM110.652 18.003l1.541-4.247c0.308-0.833 0.859-2.641 0.971-2.956h0.111c0.112 0.316 0.662 2.143 0.971 2.956l1.541 4.247h-5.135z"></path>
<path d="M133.86 17.532c0 0.296 0.046 1.082 0.046 1.216l-0.112 0.047c-0.066-0.087-0.505-0.88-0.748-1.243l-6.564-9.239h-2.695v15.488h2.708v-9.279c0-0.383-0.046-1.129-0.046-1.243l0.112-0.067c0.066 0.087 0.393 0.746 0.748 1.263l6.61 9.326h2.643v-15.488h-2.708l0.007 9.219z"></path>
<path d="M147.802 8.052c-4.735 0-7.6 2.573-7.6 8.016s2.859 8.016 7.6 8.016c4.741 0 7.627-2.573 7.627-8.016s-2.892-8.016-7.627-8.016zM152.536 16.316c0 3.548-1.652 5.328-4.735 5.328-3.063 0-4.715-1.781-4.715-5.328v-0.477c0-3.548 1.672-5.348 4.715-5.348 3.063 0 4.735 1.807 4.735 5.348v0.477z"></path>
</symbol>
<symbol id="icon-ECOPAYZ" viewBox="0 0 128 32">
<path d="M21.086 0c-11.654 0-21.086 6.347-21.086 14.236 0 3.341 1.708 6.403 4.597 8.872-1.418-2.023-2.229-4.276-2.229-6.682 0-8.161 9.24-14.787 20.611-14.787 7.348 0 13.791 2.741 17.439 6.898-3.265-5.036-10.704-8.537-19.331-8.537z"></path>
<path d="M13.053 12.004c0.607-0.544 1.365-0.816 2.262-0.816 0.877 0 1.629 0.279 2.249 0.837 0.62 0.551 0.956 1.262 1.022 2.127h-6.695c0.171-0.893 0.554-1.604 1.161-2.148zM20.598 17.416c0.864 0 1.55-0.195 2.078-0.586 0.607-0.432 0.91-1.060 0.91-1.883 0-1.521-0.462-2.929-1.385-4.227s-2.104-2.274-3.549-2.929c-1.003-0.453-2.13-0.677-3.364-0.677-2.493 0-4.538 0.872-6.147 2.623-1.603 1.751-2.401 3.857-2.401 6.326 0 2.49 0.838 4.583 2.513 6.284s3.773 2.546 6.286 2.546c1.339 0 2.632-0.202 3.865-0.614 1.464-0.474 2.539-1.165 3.205-2.064 0.376-0.495 0.567-0.99 0.567-1.479 0-1.297-0.673-1.946-2.012-1.946-0.29 0-1.049 0.272-2.262 0.816s-2.256 0.816-3.113 0.816c-1.029 0-1.899-0.258-2.605-0.767-0.712-0.516-1.121-1.255-1.227-2.225l8.64-0.014zM25.96 22.313c1.629 1.716 3.786 2.567 6.47 2.567 1.609 0 2.948-0.244 4.030-0.746 1.497-0.704 2.249-1.555 2.249-2.567 0-0.6-0.191-1.109-0.58-1.534-0.382-0.425-0.884-0.635-1.504-0.635-0.422 0-0.95 0.125-1.59 0.37s-1.332 0.37-2.078 0.37c-1.28 0-2.269-0.411-2.975-1.234-0.613-0.746-0.923-1.737-0.923-2.971 0-1.179 0.297-2.155 0.89-2.943 0.66-0.872 1.596-1.304 2.81-1.304 0.752 0 1.458 0.133 2.13 0.384 0.673 0.258 1.214 0.391 1.636 0.391 0.64 0 1.167-0.209 1.583-0.621 0.422-0.412 0.627-0.921 0.627-1.514 0-1.158-0.725-2.023-2.183-2.602-1.075-0.412-2.341-0.621-3.799-0.621-2.777 0-4.999 0.83-6.668 2.49-1.675 1.66-2.506 3.801-2.506 6.424 0.007 2.553 0.798 4.652 2.381 6.298zM45.246 13.127c0.653-0.879 1.583-1.318 2.777-1.318 1.174 0 2.091 0.453 2.744 1.353 0.587 0.774 0.877 1.716 0.877 2.825 0 1.144-0.284 2.099-0.844 2.853-0.66 0.9-1.583 1.353-2.777 1.353-1.174 0-2.091-0.454-2.744-1.353-0.587-0.774-0.884-1.73-0.884-2.853 0-1.13 0.284-2.079 0.851-2.86zM41.282 22.271c1.761 1.737 4.010 2.609 6.741 2.609 2.757 0 5.006-0.865 6.741-2.581 1.669-1.674 2.506-3.773 2.506-6.291 0-2.532-0.844-4.652-2.539-6.354-1.695-1.695-3.931-2.546-6.708-2.546-2.73 0-4.96 0.851-6.688 2.56s-2.592 3.822-2.592 6.34c0 2.504 0.844 4.589 2.539 6.263z"></path>
<path d="M124.485 20.492h-5.58l7.499-8.084c0.765-0.823 1.148-1.514 1.148-2.085 0-0.628-0.29-1.018-0.877-1.186-0.58-0.167-1.478-0.244-2.691-0.244h-9.049c-2.401 0-3.601 0.711-3.601 2.134 0 1.444 1.187 2.169 3.568 2.169h4.854l-7.757 8.412c-0.561 0.607-0.838 1.214-0.838 1.814 0 0.976 0.989 1.465 2.968 1.465h10.309c2.374 0 3.562-0.718 3.562-2.169 0.007-1.486-1.167-2.225-3.515-2.225z"></path>
<path d="M64.208 21.204v-3.899h3.548c2.493 0 4.452-0.677 5.89-2.037 1.431-1.353 2.15-3.264 2.15-5.726 0-2.483-0.791-4.415-2.374-5.789-1.497-1.318-3.529-1.974-6.081-1.974h-4.749c-1.372 0-2.322 0.272-2.849 0.809-0.528 0.544-0.791 1.493-0.791 2.846v15.756c0 2.462 0.877 3.69 2.632 3.69 1.748 0.007 2.625-1.221 2.625-3.676zM64.208 6.57h2.282c2.407 0 3.608 0.99 3.608 2.971 0 2.023-1.2 3.034-3.608 3.034h-2.282v-6.005z"></path>
<path d="M90.944 25.018c1.754 0 2.638-1.242 2.638-3.718v-10.232c0-2.455-0.877-3.683-2.638-3.683-1.075 0-1.919 0.537-2.539 1.604-1.069-1.214-2.5-1.827-4.281-1.827-2.434 0-4.445 0.942-6.028 2.832-1.484 1.758-2.236 3.822-2.236 6.194 0 2.343 0.712 4.387 2.144 6.131 1.557 1.89 3.535 2.832 5.929 2.832 1.886 0 3.377-0.642 4.478-1.918 0.528 1.186 1.372 1.786 2.533 1.786zM82.218 13.321c0.633-0.858 1.497-1.29 2.592-1.29 1.115 0 1.979 0.425 2.585 1.29 0.521 0.753 0.785 1.688 0.785 2.797s-0.264 2.058-0.785 2.832c-0.613 0.879-1.477 1.318-2.585 1.318-1.115 0-1.992-0.439-2.625-1.318-0.547-0.774-0.818-1.723-0.818-2.832 0-1.088 0.284-2.023 0.851-2.797zM105.935 9.394l-3.265 8.112-3.027-7.672c-0.33-0.858-0.627-1.437-0.891-1.73-0.435-0.481-1.042-0.725-1.814-0.725-0.745 0-1.365 0.244-1.86 0.725s-0.739 1.081-0.739 1.793c0 0.502 0.099 0.976 0.297 1.416l5.369 11.976-2.19 4.555c-0.29 0.649-0.442 1.221-0.442 1.723 0 0.746 0.244 1.346 0.725 1.779 0.482 0.439 1.121 0.656 1.913 0.656 0.943 0 1.721-0.684 2.341-2.044l8.132-18.393c0.284-0.649 0.429-1.235 0.429-1.758 0-1.611-0.877-2.42-2.632-2.42-1.022-0.007-1.801 0.67-2.348 2.009z"></path>
</symbol>
<symbol id="icon-ETHEREUM" viewBox="0 0 125 32">
<path opacity="0.8" d="M35.35 18.41c0 0.225-0.182 0.417-0.418 0.417h-7.65c0.198 1.941 1.617 3.713 3.624 3.713 1.376 0 2.393-0.532 3.153-1.656 0.080-0.115 0.198-0.203 0.337-0.203 0.219 0 0.38 0.165 0.38 0.389 0 0.071-0.021 0.143-0.059 0.203-0.771 1.371-2.313 2.046-3.812 2.046-2.575 0-4.422-2.364-4.422-4.881 0-2.534 1.836-4.886 4.422-4.886 2.575 0 4.433 2.342 4.443 4.859zM34.53 18.048c-0.161-1.941-1.617-3.713-3.63-3.713-2.008 0-3.426 1.771-3.624 3.713h7.254zM44.654 13.743c0.219 0 0.38 0.203 0.38 0.389 0 0.225-0.161 0.389-0.38 0.389h-2.056v8.265c0 0.203-0.161 0.389-0.38 0.389-0.209-0.005-0.375-0.175-0.38-0.389v-8.265h-1.975c-0.203 0.005-0.375-0.159-0.38-0.367 0-0.006 0-0.016 0-0.022 0-0.203 0.166-0.389 0.38-0.389h1.975v-3.016c0-0.203 0.15-0.389 0.348-0.411 0.241-0.022 0.428 0.154 0.428 0.389v3.038h2.040zM57.187 17.736v5.007c0 0.225-0.198 0.389-0.38 0.389-0.203 0.005-0.375-0.159-0.38-0.367 0-0.006 0-0.016 0-0.022v-5.007c0-1.689-0.937-3.373-2.773-3.373-2.356 0-3.373 2.106-3.234 4.272 0 0.060 0.021 0.307 0.021 0.346v3.746c0 0.203-0.15 0.389-0.348 0.417-0.209 0.027-0.396-0.121-0.423-0.334 0-0.022-0.005-0.038-0.005-0.060v-16.447c0-0.203 0.161-0.389 0.38-0.389s0.38 0.203 0.38 0.389v9.296c0.658-1.207 1.836-2.024 3.207-2.024 2.27 0.005 3.555 2.024 3.555 4.162zM70.935 18.41c0 0.225-0.187 0.417-0.418 0.417h-7.656c0.198 1.941 1.617 3.713 3.63 3.713 1.37 0 2.388-0.532 3.153-1.656 0.080-0.115 0.198-0.203 0.337-0.203 0.219 0 0.38 0.165 0.38 0.389 0 0.071-0.022 0.143-0.059 0.203-0.771 1.371-2.313 2.046-3.812 2.046-2.575 0-4.422-2.364-4.422-4.881 0-2.534 1.836-4.886 4.422-4.886 2.559 0 4.433 2.342 4.443 4.859zM70.105 18.048c-0.161-1.941-1.617-3.713-3.63-3.713-2.008 0-3.426 1.771-3.624 3.713h7.254zM80.346 14.105c0 0.247-0.139 0.389-0.359 0.428-2.248 0.345-3.266 2.221-3.266 4.409v3.751c0 0.203-0.15 0.389-0.348 0.417-0.209 0.027-0.396-0.121-0.423-0.335 0-0.022-0.005-0.038-0.005-0.060v-8.55c0-0.203 0.15-0.389 0.348-0.417 0.241-0.022 0.428 0.154 0.428 0.389v1.738c0.637-1.102 1.895-2.139 3.212-2.139 0.193 0.005 0.412 0.148 0.412 0.367zM92.927 18.41c0 0.225-0.187 0.417-0.418 0.417h-7.661c0.198 1.941 1.617 3.713 3.63 3.713 1.37 0 2.388-0.532 3.153-1.656 0.080-0.115 0.198-0.203 0.337-0.203 0.219 0 0.38 0.165 0.38 0.389 0 0.071-0.021 0.143-0.059 0.203-0.771 1.371-2.307 2.046-3.812 2.046-2.575 0-4.422-2.364-4.422-4.881 0-2.534 1.836-4.886 4.422-4.886 2.575 0 4.438 2.342 4.449 4.859zM92.108 18.048c-0.161-1.941-1.617-3.713-3.624-3.713s-3.432 1.771-3.63 3.713c0.005 0 7.254 0 7.254 0zM105.304 14.204v8.588c0 0.225-0.198 0.389-0.38 0.389-0.203 0.006-0.375-0.159-0.38-0.373 0-0.006 0-0.016 0-0.022v-1.634c-0.632 1.289-1.751 2.221-3.185 2.221-2.275 0-3.533-2.024-3.533-4.163v-5.029c0-0.203 0.161-0.389 0.38-0.389s0.38 0.203 0.38 0.389v5.029c0 1.689 0.932 3.373 2.768 3.373 2.575 0 3.185-2.473 3.185-5.205v-3.208c0-0.236 0.241-0.472 0.519-0.367 0.155 0.077 0.246 0.23 0.246 0.4zM124.69 17.703v5.023c0 0.225-0.199 0.389-0.38 0.389-0.204 0.005-0.375-0.159-0.381-0.373 0-0.006 0-0.016 0-0.022v-5.023c0-1.695-0.937-3.345-2.773-3.345-2.307 0-3.186 2.534-3.186 4.492v3.877c0 0.225-0.198 0.389-0.38 0.389-0.204 0.006-0.375-0.159-0.381-0.373 0-0.005 0-0.016 0-0.022v-5.024c0-1.695-0.937-3.345-2.773-3.345-2.334 0-3.293 1.881-3.207 4.387 0 0.060 0.021 0.165 0 0.203v3.773c0 0.203-0.15 0.389-0.348 0.417-0.21 0.027-0.396-0.121-0.424-0.335 0-0.022-0.006-0.038-0.006-0.060v-8.577c0-0.203 0.15-0.389 0.349-0.417 0.241-0.022 0.428 0.153 0.428 0.389v1.431c0.659-1.207 1.836-1.996 3.207-1.996 1.558 0 2.773 1.020 3.266 2.495 0.637-1.464 1.868-2.495 3.453-2.495 2.253 0.011 3.533 2.007 3.533 4.141z"></path>
<path opacity="0.8" d="M9.583 11.84l-9.583 4.459 9.583 5.808 9.594-5.808-9.594-4.459z"></path>
<path opacity="0.8" d="M0 16.299l9.583 5.808v-22.107l-9.583 16.299z"></path>
<path opacity="0.8" d="M9.583 0v22.107l9.594-5.808-9.594-16.299z"></path>
<path opacity="0.8" d="M0 18.163l9.583 13.837v-8.040l-9.583-5.797z"></path>
<path opacity="0.8" d="M9.583 23.96v8.040l9.594-13.837-9.594 5.797z"></path>
</symbol>
<symbol id="icon-LITECOIN" viewBox="0 0 123 32">
<path d="M17.268 0c-9.535 0-17.268 7.165-17.268 16s7.733 16 17.268 16c9.535 0 17.268-7.165 17.268-16s-7.728-16-17.268-16zM17.545 16.528l-1.797 5.616h9.609c0.272 0 0.491 0.208 0.491 0.46 0 0.044-0.005 0.087-0.021 0.126l-0.836 2.667c-0.084 0.261-0.345 0.441-0.637 0.441h-14.666l2.482-7.765-2.743 0.775 0.606-1.815 2.748-0.775 3.485-10.907c0.078-0.261 0.334-0.445 0.632-0.445h3.72c0.272 0 0.491 0.203 0.496 0.455 0 0.044-0.005 0.082-0.021 0.126l-2.926 9.222 2.743-0.775-0.59 1.845-2.774 0.75z"></path>
<path d="M44.521 4.856h-1.076c-0.188-0.010-0.35 0.121-0.36 0.295v0.005l-2.764 20.386c-0.021 0.194 0.047 0.3 0.267 0.3h1.071c0.178 0.024 0.34-0.087 0.366-0.252 0-0.015 0.005-0.034 0.005-0.048l2.801-20.376c0.031-0.223-0.094-0.31-0.308-0.31zM50.132 10.733h-1.071c-0.183-0.019-0.345 0.107-0.366 0.276 0 0.005 0 0.015 0 0.019l-1.996 14.514c-0.021 0.199 0.105 0.3 0.303 0.3h1.071c0.183 0.029 0.355-0.087 0.381-0.257 0-0.015 0.005-0.029 0.005-0.044l1.97-14.504c0.005-0.198-0.068-0.305-0.298-0.305zM97.062 10.496c-2.847-0.058-5.361 1.723-6.045 4.284-0.298 1.152-0.517 2.324-0.664 3.505-0.172 1.162-0.272 2.333-0.298 3.51-0.026 1.157 0.455 2.275 1.332 3.098 0.867 0.775 2.059 1.162 3.574 1.162 1.385 0.029 2.738-0.382 3.84-1.162 1.082-0.775 1.85-1.864 2.174-3.098 0.303-1.152 0.522-2.324 0.664-3.505 0.172-1.172 0.266-2.353 0.298-3.539 0.057-1.157-0.423-2.285-1.317-3.098-0.982-0.804-2.257-1.22-3.558-1.157zM100.082 16.876c-0.068 0.47-0.125 0.939-0.183 1.409-0.199 1.496-0.381 2.571-0.533 3.21-0.209 0.915-0.747 1.733-1.531 2.324-0.763 0.571-1.724 0.881-2.707 0.867-1.745 0.106-3.255-1.113-3.37-2.73-0.010-0.121-0.010-0.242 0-0.368 0.011-0.62 0.057-1.244 0.146-1.859 0.104-0.736 0.167-1.205 0.183-1.409 0.204-1.438 0.381-2.508 0.533-3.205 0.209-0.915 0.752-1.733 1.536-2.324 0.763-0.571 1.719-0.881 2.706-0.867 1.745-0.107 3.25 1.118 3.365 2.735 0.011 0.121 0.011 0.242 0 0.358-0.010 0.625-0.057 1.244-0.146 1.859zM108.049 10.733h-1.066c-0.188-0.010-0.355 0.121-0.366 0.295l-2.001 14.514c-0.031 0.208 0.099 0.3 0.298 0.3h1.071c0.188 0.015 0.35-0.116 0.366-0.286 0-0.005 0-0.010 0-0.010l1.97-14.514c0.026-0.194-0.063-0.3-0.272-0.3zM121.561 11.59c-0.737-0.712-1.766-1.065-3.104-1.065-0.825-0.010-1.646 0.15-2.403 0.465-0.742 0.315-1.385 0.794-1.87 1.394-0.089 0.077-0.136 0.058-0.136-0.063l0.167-1.288c0.026-0.179-0.063-0.295-0.267-0.295h-1.066c-0.188-0.015-0.35 0.116-0.366 0.286 0 0.005 0 0.005 0 0.010l-1.97 14.514c-0.026 0.189 0.047 0.3 0.267 0.3h1.071c0.188 0.015 0.355-0.116 0.366-0.291 0-0.005 0-0.005 0-0.010l1.432-10.399c0.204-0.901 0.721-1.719 1.468-2.324 0.731-0.591 1.672-0.905 2.644-0.891 0.846-0.034 1.672 0.276 2.257 0.842 0.585 0.61 0.888 1.414 0.836 2.232 0.005 0.223-0.005 0.441-0.037 0.663l-1.364 9.881c-0.021 0.073 0 0.15 0.052 0.208 0.063 0.063 0.157 0.097 0.251 0.092h1.066c0.188 0.015 0.35-0.116 0.366-0.286 0-0.005 0-0.010 0-0.010l1.369-10.128c0.047-0.387 0.068-0.702 0.068-0.896 0.073-1.089-0.324-2.14-1.097-2.943zM50.838 4.865c-0.627-0.339-1.437-0.14-1.803 0.445-0.366 0.581-0.152 1.331 0.481 1.67 0.026 0.015 0.052 0.029 0.084 0.039 0.653 0.295 1.442 0.048 1.761-0.557 0.303-0.581 0.078-1.273-0.523-1.598zM108.817 4.865c-0.632-0.329-1.437-0.121-1.792 0.465s-0.131 1.331 0.502 1.661c0.021 0.010 0.047 0.024 0.068 0.034 0.653 0.295 1.442 0.044 1.761-0.562 0.303-0.581 0.068-1.283-0.538-1.598zM83.106 10.496c-1.4-0.029-2.764 0.392-3.872 1.186-1.082 0.775-1.844 1.869-2.168 3.098-0.293 1.157-0.517 2.324-0.669 3.505-0.167 1.162-0.272 2.333-0.303 3.51-0.031 1.157 0.455 2.28 1.338 3.098 0.867 0.775 2.059 1.162 3.569 1.162 1.385 0.029 2.738-0.382 3.84-1.162 1.087-0.77 1.85-1.864 2.168-3.098l0.089-0.329c0.021-0.073-0.031-0.15-0.11-0.165-0.010-0.005-0.026-0.005-0.037-0.005h-1.317c-0.094-0.005-0.178 0.058-0.204 0.14v0.058c-0.209 0.915-0.752 1.733-1.536 2.324-0.763 0.571-1.719 0.881-2.701 0.867-1.745 0.106-3.255-1.113-3.37-2.73-0.011-0.121-0.011-0.242 0-0.368 0.010-0.62 0.057-1.244 0.146-1.859 0.063-0.47 0.125-0.939 0.183-1.409 0.204-1.438 0.376-2.508 0.533-3.205 0.199-0.92 0.737-1.743 1.515-2.338 0.763-0.571 1.719-0.876 2.701-0.867 1.745-0.111 3.255 1.113 3.37 2.73 0.010 0.121 0.010 0.247 0 0.368v0.019c-0.005 0.126 0.099 0.232 0.24 0.237 0.005 0 0.005 0 0.011 0h1.254c0.105 0.005 0.193-0.073 0.199-0.169v-0.358c0.057-1.162-0.423-2.285-1.322-3.098-0.972-0.804-2.247-1.215-3.548-1.143zM72.327 11.662c-0.972-0.808-2.252-1.225-3.553-1.162-2.847-0.058-5.361 1.723-6.045 4.284-0.298 1.157-0.517 2.324-0.664 3.505-0.193 1.162-0.298 2.333-0.303 3.51-0.026 1.157 0.455 2.275 1.332 3.098 0.867 0.775 2.059 1.162 3.569 1.162 1.385 0.029 2.738-0.382 3.84-1.162 1.087-0.77 1.855-1.864 2.173-3.098l0.089-0.329c0.021-0.073-0.026-0.15-0.11-0.169-0.011-0.005-0.026-0.005-0.037-0.005h-1.327c-0.094 0-0.178 0.058-0.204 0.145v0.058c-0.209 0.915-0.747 1.733-1.536 2.324-0.768 0.566-1.729 0.867-2.717 0.842-1.745 0.107-3.25-1.118-3.37-2.735-0.010-0.121-0.010-0.242 0-0.363 0.005-0.542 0.047-1.084 0.12-1.622l9.645-2.764c0.183-0.039 0.308-0.189 0.308-0.358 0.057-0.465 0.094-1.249 0.105-2.057 0.037-1.157-0.439-2.275-1.317-3.103zM71.946 15.84c0 0.087-0.068 0.165-0.157 0.189l-7.994 2.29v-0.034c0.199-1.438 0.381-2.508 0.533-3.205 0.209-0.915 0.752-1.733 1.531-2.324 0.763-0.571 1.724-0.876 2.707-0.867 0.914-0.034 1.797 0.286 2.445 0.881 0.987 0.896 0.993 1.854 0.935 3.069zM58.116 24.24c0.125-0.063 0.282-0.019 0.35 0.097 0.026 0.044 0.037 0.087 0.031 0.136l-0.131 1.002c-0.021 0.131-0.115 0.242-0.246 0.29-1.071 0.397-2.262 0.412-3.344 0.044-1.223-0.518-1.536-1.636-1.358-3.035l1.411-10.631 0.199-1.53 0.465-3.384c0.005-0.169 0.157-0.305 0.345-0.3 0.011 0 0.016 0 0.026 0h1.035c0.246 0 0.298 0.126 0.266 0.3l-0.637 4.798h3.344c0.193 0 0.282 0.107 0.266 0.295l-0.094 0.687c0 0.087-0.037 0.169-0.099 0.232-0.078 0.048-0.172 0.073-0.266 0.068h-3.344l-1.17 8.719c-0.12 0.939-0.256 1.782 0.261 2.246 0.7 0.552 2.006 0.261 2.691-0.034z"></path>
</symbol>
<symbol id="icon-Logo" viewBox="0 0 126 32">
<path fill="#fff" style="fill: var(--color2, #fff)" d="M0 0.34h6.17v25.362h14.723v5.957h-20.894v-31.319z"></path>
<path fill="#fff" style="fill: var(--color2, #fff)" d="M24.473 16.043c0-2.156 0.411-4.199 1.234-6.128s1.958-3.631 3.404-5.106c1.475-1.504 3.177-2.681 5.106-3.532s4-1.277 6.213-1.277c2.184 0 4.241 0.426 6.17 1.277s3.631 2.028 5.106 3.532c1.504 1.475 2.667 3.177 3.489 5.106 0.851 1.929 1.277 3.972 1.277 6.128 0 2.213-0.426 4.284-1.277 6.213-0.823 1.929-1.986 3.631-3.489 5.106-1.475 1.447-3.177 2.582-5.106 3.404s-3.986 1.234-6.17 1.234c-2.213 0-4.284-0.411-6.213-1.234s-3.631-1.957-5.106-3.404c-1.447-1.475-2.582-3.177-3.404-5.106s-1.234-4-1.234-6.213zM30.856 16.043c0 1.39 0.241 2.695 0.723 3.915 0.511 1.192 1.206 2.255 2.085 3.192 0.908 0.908 1.943 1.617 3.106 2.128 1.191 0.511 2.482 0.766 3.872 0.766 1.333 0 2.567-0.255 3.702-0.766 1.163-0.511 2.17-1.22 3.021-2.128 0.851-0.936 1.518-2 2-3.192 0.482-1.22 0.723-2.525 0.723-3.915 0-1.418-0.255-2.738-0.766-3.957-0.482-1.22-1.163-2.284-2.043-3.191-0.851-0.936-1.858-1.66-3.021-2.17s-2.425-0.766-3.787-0.766c-1.362 0-2.624 0.255-3.787 0.766s-2.184 1.234-3.064 2.17c-0.88 0.908-1.56 1.972-2.043 3.191s-0.723 2.539-0.723 3.957z"></path>
<path fill="#fff" style="fill: var(--color2, #fff)" d="M88.029 28.511c-0.369 0.397-0.95 0.808-1.745 1.234-0.794 0.397-1.716 0.766-2.766 1.106-1.021 0.34-2.071 0.61-3.149 0.808-1.078 0.227-2.099 0.34-3.064 0.34-2.553 0-4.851-0.369-6.894-1.106-2.043-0.766-3.787-1.816-5.234-3.149-1.447-1.362-2.553-2.965-3.319-4.809s-1.149-3.858-1.149-6.042c0-2.865 0.425-5.348 1.277-7.447 0.88-2.128 2.057-3.887 3.532-5.277 1.504-1.418 3.22-2.468 5.149-3.149 1.957-0.681 4-1.021 6.128-1.021 2.014 0 3.858 0.227 5.532 0.681 1.674 0.426 3.092 0.965 4.255 1.617l-2 5.745c-0.511-0.284-1.192-0.567-2.043-0.851s-1.716-0.511-2.596-0.681c-0.879-0.199-1.66-0.298-2.34-0.298-1.702 0-3.206 0.213-4.511 0.638s-2.411 1.064-3.319 1.915c-0.879 0.851-1.546 1.915-2 3.191-0.454 1.248-0.681 2.709-0.681 4.383 0 1.475 0.255 2.808 0.766 4 0.511 1.163 1.22 2.156 2.128 2.979 0.936 0.823 2.028 1.447 3.277 1.872 1.277 0.425 2.681 0.638 4.213 0.638 0.879 0 1.688-0.057 2.426-0.17 0.738-0.142 1.362-0.355 1.872-0.638v-3.787h-5.404v-5.958h11.66v13.234z"></path>
<path fill="#fff" style="fill: var(--color2, #fff)" d="M93.123 16.043c0-2.156 0.411-4.199 1.234-6.128s1.957-3.631 3.404-5.106c1.475-1.504 3.177-2.681 5.106-3.532s4-1.277 6.213-1.277c2.184 0 4.241 0.426 6.17 1.277s3.631 2.028 5.106 3.532c1.504 1.475 2.667 3.177 3.489 5.106 0.852 1.929 1.278 3.972 1.278 6.128 0 2.213-0.426 4.284-1.278 6.213-0.822 1.929-1.985 3.631-3.489 5.106-1.475 1.447-3.177 2.582-5.106 3.404s-3.986 1.234-6.17 1.234c-2.213 0-4.284-0.411-6.213-1.234s-3.631-1.957-5.106-3.404c-1.447-1.475-2.582-3.177-3.404-5.106s-1.234-4-1.234-6.213zM99.506 16.043c0 1.39 0.241 2.695 0.723 3.915 0.511 1.192 1.206 2.255 2.085 3.192 0.908 0.908 1.943 1.617 3.106 2.128 1.192 0.511 2.482 0.766 3.872 0.766 1.333 0 2.567-0.255 3.702-0.766 1.163-0.511 2.17-1.22 3.021-2.128 0.851-0.936 1.518-2 2-3.192 0.482-1.22 0.723-2.525 0.723-3.915 0-1.418-0.255-2.738-0.766-3.957-0.482-1.22-1.163-2.284-2.043-3.191-0.851-0.936-1.858-1.66-3.021-2.17s-2.425-0.766-3.787-0.766-2.624 0.255-3.787 0.766c-1.163 0.511-2.184 1.234-3.064 2.17-0.879 0.908-1.56 1.972-2.043 3.191s-0.723 2.539-0.723 3.957z"></path>
</symbol>
<symbol id="icon-MASTERCARD" viewBox="0 0 50 32">
<path fill="none" stroke="#757575" stroke-linejoin="miter" stroke-linecap="butt" stroke-miterlimit="10" stroke-width="2.56" d="M47.966 15.707c0 7.967-6.46 14.427-14.427 14.427-3.234 0-6.372-1.086-8.916-3.086-3.482-2.733-5.514-6.913-5.51-11.341-0.004-4.428 2.028-8.608 5.51-11.341 6.263-4.925 15.332-3.839 20.257 2.424 2 2.545 3.086 5.682 3.086 8.916z"></path>
<path fill="none" stroke="#757575" stroke-linejoin="miter" stroke-linecap="butt" stroke-miterlimit="10" stroke-width="2.56" d="M30.133 15.707c0 7.967-6.46 14.427-14.426 14.427-3.234 0-6.372-1.086-8.916-3.086-3.482-2.733-5.514-6.913-5.51-11.341-0.004-4.428 2.028-8.608 5.51-11.341 6.263-4.925 15.332-3.839 20.257 2.424 2 2.545 3.086 5.682 3.086 8.916z"></path>
</symbol>
<symbol id="icon-PAYSAFE" viewBox="0 0 181 32">
<path d="M32.662 14.292c-0.022-0.655-0.318-0.993-0.896-1.016h-3.078c-0.73 0.045-1.106 0.459-1.12 1.242v5.757c0.014 0.805 0.434 1.219 1.243 1.242h2.818c0.296 0 0.535-0.113 0.73-0.346 0.202-0.173 0.296-0.399 0.296-0.67v-6.209h0.007zM23.63 13.471c0.022-1.445 0.325-2.536 0.925-3.289 0.311-0.316 0.708-0.579 1.178-0.79 0.499-0.233 0.976-0.346 1.438-0.346h5.644c2.493 0.023 3.758 1.437 3.794 4.26v8.67c-0.022 1.001-0.397 1.866-1.12 2.597-0.723 0.76-1.582 1.151-2.58 1.174h-5.34v6.254h-3.938v-18.529z"></path>
<path d="M43.74 20.689c0 0.241 0.108 0.429 0.318 0.572 0.188 0.173 0.419 0.263 0.715 0.263h3.035c0.686 0 1.041-0.278 1.062-0.835v-1.182c0-0.647-0.361-0.971-1.091-0.971h-3.006c-0.397 0-0.672 0.068-0.824 0.196-0.137 0.151-0.21 0.451-0.21 0.903v1.054zM48.863 14.186c0.022-0.632-0.333-0.933-1.062-0.911h-7.949v-4.222h8.953c2.609 0.045 3.931 1.355 3.974 3.951v8.835c-0.022 1.114-0.354 2.039-0.99 2.769-0.665 0.76-1.525 1.144-2.58 1.144h-5.412c-2.638-0.023-3.967-1.28-4.011-3.763v-3.409c0.022-2.604 1.293-3.921 3.823-3.966h5.254v-0.429z"></path>
<path d="M63.872 27.77c0.311-0.023 0.585-0.135 0.802-0.346 0.21-0.196 0.318-0.422 0.318-0.677v-1.001h-5.058c-0.658 0-1.185-0.090-1.583-0.263-0.419-0.158-0.831-0.452-1.243-0.873-0.398-0.444-0.679-0.911-0.853-1.4-0.181-0.444-0.267-1.008-0.267-1.693v-12.47h3.946v11.131c0 0.896 0.347 1.34 1.055 1.34h2.789c0.332 0 0.621-0.113 0.86-0.346 0.231-0.196 0.347-0.429 0.347-0.7v-11.424h3.917v18.401c-0.022 1.362-0.354 2.454-1.004 3.281-0.658 0.828-1.554 1.249-2.695 1.272h-9.213v-4.222h7.884z"></path>
<path d="M72.009 21.524h7.038c0.643-0.023 0.976-0.294 0.997-0.805v-0.376c0-0.113-0.029-0.233-0.094-0.361-0.159-0.316-0.347-0.474-0.578-0.474h-3.49c-1.033-0.023-1.915-0.391-2.659-1.106-0.752-0.662-1.134-1.475-1.156-2.431v-3.153c0.043-2.461 1.322-3.71 3.851-3.755h8.158v4.222h-6.915c-0.809 0-1.221 0.256-1.221 0.775v0.406c0 0.534 0.419 0.805 1.25 0.805h3.476c0.925 0.023 1.72 0.391 2.377 1.114 0.665 0.722 1.012 1.588 1.033 2.589v3.078c-0.022 0.866-0.405 1.731-1.149 2.589-0.361 0.421-0.73 0.715-1.098 0.881-0.383 0.15-0.903 0.226-1.561 0.226h-8.26v-4.222z"></path>
<path d="M90.826 20.689c0 0.241 0.109 0.429 0.318 0.572 0.181 0.173 0.419 0.263 0.715 0.263h3.035c0.686 0 1.040-0.278 1.062-0.835v-1.182c0-0.647-0.369-0.971-1.091-0.971h-3.006c-0.398 0-0.665 0.068-0.817 0.196-0.137 0.151-0.217 0.451-0.217 0.903v1.054zM95.956 14.186c0.014-0.632-0.34-0.933-1.070-0.911h-7.949v-4.222h8.953c2.601 0.045 3.931 1.355 3.967 3.951v8.835c-0.022 1.114-0.354 2.039-0.99 2.769-0.665 0.76-1.525 1.144-2.58 1.144h-5.42c-2.63-0.023-3.967-1.28-4.003-3.763v-3.409c0.014-2.604 1.294-3.921 3.823-3.966h5.254v-0.429z"></path>
<path d="M103.074 6.653c0.022-1.144 0.426-2.055 1.221-2.739 0.766-0.7 1.778-1.054 3.021-1.076h2.507v4.079h-1.518c-0.831 0.023-1.257 0.436-1.279 1.242v0.896h2.796v4.23h-2.796v12.47h-3.953v-19.101z"></path>
<path d="M121.053 14.111v-0.098c0-0.218-0.087-0.399-0.253-0.542-0.181-0.135-0.412-0.196-0.679-0.196h-2.746c-0.354 0-0.636 0.105-0.86 0.316-0.275 0.196-0.412 0.452-0.412 0.768v1.693l4.95-1.942zM116.161 20.079v0.263c0 0.339 0.087 0.61 0.253 0.798 0.123 0.248 0.289 0.376 0.513 0.376h8.108v4.222h-8.621c-0.787 0-1.402-0.075-1.835-0.233-0.477-0.166-0.896-0.429-1.272-0.798-0.434-0.444-0.73-0.903-0.882-1.37-0.166-0.489-0.246-1.136-0.246-1.942l-0.036-8.452c0.043-2.551 1.322-3.853 3.844-3.898h5.326c2.457 0.045 3.707 1.392 3.743 4.041v3.341l-8.895 3.65z"></path>
<path d="M133.424 25.746c-0.6 0-1.142-0.060-1.64-0.166-0.52-0.090-1.033-0.339-1.561-0.76-0.542-0.489-0.918-1.046-1.12-1.648-0.217-0.602-0.325-1.279-0.325-2.039v-7.887c-0.022-0.64 0.036-1.204 0.181-1.693 0.13-0.489 0.412-0.963 0.831-1.437 0.484-0.489 0.968-0.82 1.489-0.978 0.499-0.128 1.062-0.196 1.691-0.196h6.048v0.986h-5.911c-1.041 0-1.864 0.226-2.464 0.67-0.614 0.489-0.925 1.325-0.925 2.514v7.887c0 0.557 0.080 1.099 0.246 1.618 0.166 0.512 0.441 0.963 0.838 1.355 0.434 0.339 0.86 0.549 1.279 0.64 0.434 0.098 0.903 0.151 1.395 0.151h5.644v0.986h-5.694z"></path>
<path d="M154.589 15.518h-7.934c-0.947 0.023-1.691 0.331-2.233 0.918-0.556 0.602-0.831 1.422-0.831 2.461v2.514c0 0.489 0.050 0.933 0.152 1.332 0.101 0.421 0.347 0.798 0.744 1.121 0.686 0.595 1.445 0.88 2.276 0.88h4.805c2.008-0.023 3.020-1.121 3.020-3.311v-5.915zM155.529 21.2c0 0.632-0.044 1.189-0.123 1.686-0.13 0.534-0.39 1.046-0.788 1.535-0.83 0.911-1.858 1.355-3.078 1.332h-4.719c-1.228 0-2.218-0.384-2.992-1.144-0.788-0.752-1.185-1.791-1.185-3.131v-2.544c0.036-2.867 1.409-4.335 4.112-4.403h7.862v-1.114c0-0.918-0.253-1.716-0.759-2.408-0.325-0.452-0.701-0.745-1.134-0.903-0.434-0.12-0.925-0.181-1.475-0.181h-8.57v-0.986h8.13c0.744 0 1.416 0.053 2.023 0.158 0.311 0.068 0.599 0.188 0.859 0.376 0.274 0.173 0.535 0.429 0.78 0.768 0.73 0.978 1.085 2.107 1.070 3.379v7.578z"></path>
<path d="M164.402 9.927c-2.197 0.045-3.288 1.294-3.244 3.755v12.064h-0.946v-12.056c-0.044-3.168 1.402-4.749 4.343-4.749h1.047v0.986h-1.199z"></path>
<path d="M180.387 9.934h-7.479c-0.542 0-1.019 0.060-1.46 0.181-0.456 0.105-0.896 0.391-1.309 0.865-0.396 0.429-0.643 0.85-0.744 1.272-0.137 0.429-0.203 0.941-0.181 1.535v7.691c0 1.279 0.355 2.152 1.077 2.619 0.354 0.218 0.744 0.376 1.186 0.489 0.433 0.121 0.925 0.181 1.46 0.181h3.266c1.221 0 2.219-0.294 2.985-0.881 0.773-0.557 1.163-1.513 1.192-2.875v-11.078h0.008zM181.326 21.080c-0.087 3.184-1.698 4.741-4.849 4.681h-3.505c-0.736 0-1.402-0.068-1.987-0.196-0.599-0.166-1.178-0.542-1.734-1.144-0.419-0.534-0.686-1.076-0.795-1.633-0.143-0.557-0.209-1.174-0.187-1.844v-7.18c0.044-3.236 1.605-4.839 4.698-4.817h7.421v-5.449h0.946v17.58z"></path>
<path d="M1.698 8.414c0.311-0.143 0.621-0.256 0.932-0.324 0.571-2.837 2.977-4.96 5.868-4.96s5.304 2.13 5.868 4.96c0.889 0.173 1.619 0.549 2.19 1.106 0.022-0.542 0-1.069-0.058-1.558-0.369-4.282-3.815-7.639-8.014-7.639-4.328 0-7.848 3.575-8.036 8.038-0.022 0.384-0.036 0.79-0.022 1.204 0.369-0.316 0.78-0.602 1.272-0.828z"></path>
<path d="M13.195 9.054h-9.647c-0.462 0-0.947 0.113-1.438 0.346-0.477 0.218-0.867 0.482-1.185 0.79-0.6 0.753-0.903 1.844-0.925 3.289v7.849c0.022 1.445 0.325 2.536 0.925 3.281 0.311 0.316 0.708 0.579 1.185 0.798 0.499 0.226 0.976 0.339 1.438 0.339h9.64c2.493-0.023 3.758-1.445 3.794-4.26v-8.181c-0.029-2.815-1.301-4.23-3.787-4.252z"></path>
</symbol>
<symbol id="icon-RIPPLE" viewBox="0 0 109 32">
<path d="M39.839 12.090c-0.29-0.105-0.902-0.155-1.514-0.155-1.841 0-3.796 1.508-3.796 3.377v8.888h-4.169v-15.867h4.034v1.593c0.939-1.177 2.639-1.924 4.527-1.924 0.612 0 0.97 0.070 1.416 0.14-0.005 0-0.498 3.948-0.498 3.948zM44.568 0c1.514 0 2.722 1.177 2.722 2.721s-1.224 2.721-2.722 2.721c-1.499 0-2.722-1.177-2.722-2.721s1.208-2.721 2.722-2.721zM46.642 24.164h-4.169v-15.832h4.169v15.832zM58.963 8.001c-1.768 0-3.334 0.591-4.563 1.593v-1.278h-4.013v23.683h4.169v-8.958c1.167 0.947 2.645 1.458 4.169 1.438 2.313 0 4.527-1.037 5.906-2.685 1.224-1.438 1.955-3.397 1.955-5.561 0.021-4.644-3.386-8.232-7.622-8.232zM58.47 20.652c-2.587 0-4.288-1.819-4.288-4.364s1.701-4.364 4.288-4.364c2.214 0 3.998 1.959 3.998 4.364s-1.784 4.364-3.998 4.364zM91.926 24.164h-4.169v-23.192h4.169v23.192zM108.944 21.654c-1.514 1.839-3.982 2.841-6.383 2.841-4.646 0-8.151-3.272-8.151-8.227 0-4.419 2.961-8.262 7.571-8.262 4.309 0 7.353 3.687 7.353 8.106 0 0.431-0.031 0.847-0.099 1.213h-10.791c0.218 2.219 1.991 3.758 4.205 3.758 1.768 0 3.184-1.007 3.915-1.839l2.38 2.41zM105.066 14.204c-0.135-1.403-1.374-2.771-3.080-2.771-1.737 0-3.148 1.333-3.334 2.771h6.414zM77.651 8.001c-1.773 0-3.339 0.591-4.563 1.593v-1.278h-4.019v23.683h4.169v-8.958c1.167 0.947 2.645 1.458 4.169 1.438 2.313 0 4.527-1.037 5.906-2.685 1.224-1.438 1.96-3.397 1.96-5.561 0.015-4.644-3.386-8.232-7.623-8.232zM77.137 20.652c-2.587 0-4.288-1.819-4.288-4.364s1.701-4.364 4.288-4.364c2.214 0 3.998 1.959 3.998 4.364 0.021 2.405-1.784 4.364-3.998 4.364z"></path>
<path d="M21.779 18.397c-0.939-0.556-2.007-0.711-3.044-0.747-0.887-0.035-2.193-0.606-2.193-2.235 0-1.212 0.97-2.199 2.193-2.235 1.058-0.035 2.111-0.19 3.049-0.747 1.716-1.007 2.774-2.876 2.774-4.905s-1.058-3.898-2.774-4.905c-1.711-1.002-3.853-1.002-5.564 0-1.737 0.987-2.79 2.861-2.79 4.885 0 1.092 0.389 2.114 0.866 3.051 0.41 0.782 0.612 2.25-0.799 3.081-1.058 0.621-2.364 0.225-3.013-0.832-0.544-0.902-1.224-1.749-2.162-2.285-1.711-1.002-3.853-1.002-5.564 0-1.701 0.987-2.759 2.861-2.759 4.885s1.058 3.898 2.79 4.905c1.722 1.007 3.848 1.007 5.564 0 0.939-0.556 1.597-1.388 2.162-2.285 0.456-0.747 1.582-1.678 3.013-0.847 1.058 0.621 1.379 1.974 0.783 3.081-0.493 0.937-0.871 1.939-0.871 3.051 0 2.029 1.058 3.898 2.774 4.905s3.842 1.007 5.564 0c1.721-1.007 2.774-2.876 2.774-4.905s-1.053-3.898-2.774-4.92z"></path>
</symbol>
<symbol id="icon-SKRILL" viewBox="0 0 96 32">
<path d="M68.958 7.808c2.174 0 3.94-1.699 3.94-3.79s-1.766-3.79-3.94-3.79c-2.174 0-3.941 1.699-3.941 3.79s1.766 3.79 3.941 3.79zM38.779 9.852c-0.176 0.426-1.456 3.905-4.553 7.512v-15.409l-8.247 1.563v27.929h8.247v-8.635c2.385 3.445 3.568 8.635 3.568 8.635h9.879c-0.978-3.905-5.249-11.112-5.249-11.112 3.835-4.676 5.524-9.664 5.791-10.489l-9.436 0.007zM60.458 9.561c-7.388 0.23-11.139 3.418-11.139 9.752v12.141h8.057v-9.901c0-3.796 0.514-5.421 5.2-5.576v-6.307c-0.788-0.162-2.118-0.108-2.118-0.108zM12.152 12.924c-1.013-0.061-3.349-0.21-3.349-2.233 0-2.443 3.364-2.443 4.63-2.443 2.224 0 5.094 0.629 7.149 1.225 0 0 1.147 0.386 2.118 0.785l0.091 0.020v-6.693l-0.127-0.034c-2.421-0.819-5.242-1.597-10.463-1.597-9.007 0-12.201 5.048-12.201 9.373 0 2.49 1.112 8.358 11.427 9.034 0.873 0.054 3.195 0.183 3.195 2.274 0 1.726-1.9 2.748-5.094 2.748-3.504 0-6.903-0.859-8.965-1.672v6.889c3.089 0.778 6.572 1.171 10.653 1.171 8.81 0 12.75-4.778 12.75-9.508 0.007-5.373-4.412-8.858-11.814-9.339zM64.962 31.447h7.994v-21.574h-7.994v21.574zM88.006 3.328v28.119h7.994v-29.492l-7.994 1.374zM76.34 3.328l7.987-1.374v29.492h-7.987v-28.119z"></path>
</symbol>
<symbol id="icon-TETHER" viewBox="0 0 114 32">
<path d="M17.263 14.148v2.652c-0.112 0.011-0.7 0.060-1.886 0.060-0.988 0-1.699-0.044-1.95-0.060v-2.658c-3.808 0.17-6.65 0.855-6.65 1.666 0 0.817 2.842 1.496 6.65 1.666 0.246 0.011 0.94 0.044 1.928 0.044 1.239 0 1.795-0.033 1.901-0.044 3.798-0.175 6.634-0.855 6.634-1.666 0.005-0.811-2.831-1.49-6.629-1.66z"></path>
<path d="M15.597 0c-8.616 0-15.597 7.162-15.597 16s6.981 16 15.597 16c8.616 0 15.597-7.162 15.597-16s-6.981-16-15.597-16zM17.263 18.126v7.622h-3.835v-7.622c-4.311-0.208-7.553-1.079-7.553-2.131s3.242-1.923 7.553-2.126v-2.378h-5.304v-3.622h14.438v3.622h-5.304v2.378c4.305 0.203 7.537 1.079 7.537 2.126 0.005 1.058-3.226 1.929-7.531 2.131z"></path>
<path d="M44.040 9.211v3.973h3.638v2.981h-3.664v6.044c0 1.337 0.694 1.984 1.709 1.984 0.508 0 1.095-0.17 1.576-0.427l0.908 2.948c-0.935 0.395-1.709 0.564-2.697 0.597-2.858 0.115-4.733-1.616-4.733-5.107v-6.044h-2.457v-2.981h2.457v-3.6l3.264-0.367zM106.737 12.997l0.24 1.617c1.015-1.732 2.382-1.984 3.718-1.984 1.362 0 2.671 0.564 3.392 1.332l-1.469 3.008c-0.668-0.597-1.282-0.91-2.35-0.91-1.709 0-3.29 0.964-3.29 3.545v7.375h-3.264v-13.989l3.023 0.005zM98.746 18.362c-0.214-1.814-1.549-2.723-3.424-2.723-1.763 0-3.21 0.91-3.691 2.723h7.115zM91.578 21.222c0.214 1.731 1.629 2.981 3.931 2.981 1.202 0 2.777-0.482 3.531-1.304l2.083 2.186c-1.389 1.529-3.664 2.268-5.667 2.268-4.546 0-7.248-2.981-7.248-7.463 0-4.258 2.729-7.321 7.008-7.321 4.412 0 7.168 2.893 6.655 8.652h-10.293zM77.199 7.123v7.77c1.175-1.616 2.617-2.099 4.118-2.099 3.744 0 5.4 2.696 5.4 6.811v7.375h-3.264v-7.348c0-2.553-1.255-3.633-2.997-3.633-1.928 0-3.264 1.731-3.264 3.83v7.151h-3.258v-19.852l3.264-0.005zM68.541 9.052v3.973h3.638v2.981h-3.664v6.044c0 1.337 0.694 1.984 1.709 1.984 0.508 0 1.095-0.17 1.576-0.427l0.908 2.948c-0.935 0.395-1.709 0.564-2.697 0.597-2.858 0.115-4.733-1.616-4.733-5.107v-6.044h-2.457v-2.981h2.457v-3.6l3.264-0.367zM59.53 18.362c-0.214-1.814-1.549-2.723-3.424-2.723-1.763 0-3.21 0.91-3.691 2.723h7.115zM52.367 21.222c0.214 1.731 1.629 2.981 3.931 2.981 1.202 0 2.778-0.482 3.531-1.304l2.083 2.186c-1.389 1.529-3.664 2.268-5.667 2.268-4.546 0-7.248-2.981-7.248-7.463 0-4.258 2.729-7.321 7.003-7.321 4.412 0 7.163 2.893 6.655 8.652h-10.288z"></path>
</symbol>
<symbol id="icon-USDC" viewBox="0 0 137 32">
<path d="M40.229 7.786h1.113c0.285 0 0.516 0.219 0.516 0.49v9.491c0 2.999 1.711 4.892 4.887 4.892 3.181 0 4.887-1.893 4.887-4.892v-9.491c0-0.271 0.23-0.49 0.516-0.49h1.114c0.285 0 0.516 0.219 0.516 0.49v9.518c0 4.084-2.353 6.686-7.032 6.686s-7.032-2.628-7.032-6.665v-9.544c-0.005-0.266 0.225-0.485 0.516-0.485zM57.068 20.714c0.164-0.198 0.483-0.219 0.675-0.042 1.157 1.069 2.885 1.987 5.074 1.987 3.077 0 4.059-1.575 4.059-2.832 0-1.971-2.090-2.508-4.366-3.098-2.765-0.688-5.847-1.424-5.847-4.647 0-2.701 2.534-4.548 5.924-4.548 2.435 0 4.361 0.709 5.781 1.956 0.203 0.177 0.225 0.475 0.044 0.678l-0.675 0.782c-0.165 0.193-0.466 0.209-0.658 0.037-1.262-1.121-2.924-1.638-4.651-1.638-2.073 0-3.543 1.059-3.543 2.602 0 1.648 1.991 2.138 4.191 2.701 2.819 0.714 6.023 1.549 6.023 4.996 0 2.383-1.711 4.819-6.363 4.819-2.787 0-4.882-0.934-6.308-2.289-0.187-0.177-0.203-0.459-0.038-0.652l0.68-0.814zM71.653 8.276c0-0.271 0.23-0.49 0.516-0.49h5.376c5.354 0 8.848 3.562 8.848 8.214 0 4.673-3.489 8.188-8.848 8.188h-5.376c-0.285 0-0.516-0.219-0.516-0.49v-15.421zM77.555 22.368c4.191 0 6.621-2.853 6.621-6.368 0-3.546-2.353-6.394-6.621-6.394h-3.746v12.761h3.746zM107.861 18.237c0-3.442 2.381-6.222 6.182-6.222s6.182 2.78 6.182 6.222c0 3.442-2.381 6.248-6.182 6.248s-6.182-2.811-6.182-6.248zM118.179 18.237c0-2.409-1.47-4.574-4.136-4.574s-4.163 2.164-4.163 4.574c0 2.435 1.497 4.6 4.163 4.6s4.136-2.164 4.136-4.6zM122.089 9.064c0-0.688 0.593-1.231 1.295-1.231 0.724 0 1.321 0.537 1.321 1.231 0 0.688-0.593 1.257-1.321 1.257-0.703 0-1.295-0.568-1.295-1.257zM122.94 12.308h0.904c0.286 0 0.516 0.219 0.516 0.49v10.9c0 0.271-0.23 0.49-0.516 0.49h-0.904c-0.286 0-0.516-0.219-0.516-0.49v-10.9c0-0.271 0.23-0.49 0.516-0.49zM135.534 16.417c0-2.091-1.114-2.754-2.792-2.754-1.524 0-2.978 0.887-3.703 1.846v8.188c0 0.271-0.23 0.49-0.516 0.49h-0.9c-0.284 0-0.516-0.219-0.516-0.49v-10.9c0-0.271 0.231-0.49 0.516-0.49h0.905c0.286 0 0.516 0.219 0.516 0.49v1.231c0.877-0.986 2.588-2.013 4.448-2.013 2.611 0 3.988 1.257 3.988 3.833v7.844c0 0.271-0.23 0.49-0.516 0.49h-0.905c-0.284 0-0.516-0.219-0.516-0.49v-7.27h-0.011v-0.005zM91.296 16c0-5.043 3.905-8.48 8.798-8.48 2.896 0 4.931 1.199 6.303 2.842 0.17 0.209 0.11 0.516-0.132 0.647l-0.965 0.506c-0.219 0.12-0.494 0.063-0.653-0.12-1.020-1.205-2.677-2.050-4.553-2.050-3.703 0-6.571 2.754-6.571 6.665 0 3.885 2.869 6.665 6.571 6.665 1.881 0 3.538-0.829 4.553-2.050 0.159-0.188 0.428-0.24 0.653-0.125l0.976 0.506c0.252 0.13 0.313 0.443 0.132 0.652-1.426 1.658-3.417 2.837-6.313 2.837-4.887-0.016-8.798-3.452-8.798-8.495z"></path>
<path d="M16.829 0c-9.292 0-16.829 7.16-16.829 16 0 8.834 7.531 16 16.829 16s16.829-7.16 16.829-16c0-8.834-7.531-16-16.829-16zM13.675 27.124c0 0.375-0.313 0.589-0.691 0.475-5.090-1.544-8.776-6.081-8.776-11.432s3.686-9.888 8.776-11.432c0.384-0.115 0.691 0.099 0.691 0.475v0.928c0 0.25-0.203 0.548-0.455 0.626-4.026 1.403-6.911 5.080-6.911 9.392 0 4.308 2.885 7.984 6.911 9.392 0.252 0.089 0.455 0.375 0.455 0.626v0.949zM17.887 23.666h-0.005c0 0.276-0.236 0.501-0.527 0.501h-1.048c-0.291 0-0.527-0.224-0.527-0.501v-1.58c-2.298-0.297-3.417-1.518-3.724-3.181-0.055-0.282 0.186-0.537 0.488-0.537h1.201c0.252 0 0.461 0.167 0.516 0.407 0.225 0.991 0.823 1.752 2.666 1.752 1.36 0 2.32-0.72 2.32-1.799s-0.565-1.486-2.562-1.799c-2.946-0.375-4.333-1.225-4.333-3.421 0-1.695 1.344-3.009 3.434-3.296v-1.549c0-0.276 0.236-0.501 0.527-0.501h1.048c0.291 0 0.527 0.224 0.527 0.501v1.596c1.695 0.287 2.77 1.205 3.121 2.722 0.066 0.287-0.17 0.558-0.483 0.558h-1.108c-0.236 0-0.433-0.151-0.51-0.37-0.296-0.965-1.020-1.382-2.282-1.382-1.393 0-2.112 0.641-2.112 1.538 0 0.949 0.411 1.424 2.545 1.721 2.891 0.376 4.383 1.163 4.383 3.499 0 1.773-1.388 3.213-3.554 3.546v1.575zM20.679 27.598c-0.384 0.115-0.691-0.099-0.691-0.475v-0.928c0-0.276 0.176-0.532 0.455-0.626 4.026-1.403 6.911-5.080 6.911-9.392s-2.885-7.984-6.911-9.392c-0.252-0.089-0.455-0.375-0.455-0.626v-0.928c0-0.375 0.313-0.595 0.691-0.475 5.090 1.544 8.776 6.081 8.776 11.432-0.006 5.33-3.692 9.862-8.776 11.411z"></path>
</symbol>
<symbol id="icon-VISA" viewBox="0 0 101 32">
<path d="M58.498 25.546c-2.912 0.047-5.787-0.624-8.368-1.96l-1.469 6.784c2.88 1.104 5.949 1.656 9.040 1.63 8.552-0.005 14.139-4.246 14.213-10.58 0.047-8.182-11.401-8.625-11.401-12.283 0.026-1.094 1.091-2.285 3.463-2.585 2.76-0.248 5.53 0.237 8.032 1.398l1.422-6.572c-2.44-0.903-5.026-1.367-7.634-1.377-8.038 0-13.746 4.22-13.746 10.23 0 4.452 3.935 6.876 7.109 8.414s4.218 2.492 4.218 3.869c-0.142 2.079-2.508 3.033-4.879 3.033z"></path>
<path d="M21.238 21.584l-3.436-17.901c-0.283-1.816-1.873-3.162-3.746-3.167h-13.866l-0.189 0.913c2.781 0.547 5.477 1.429 8.038 2.636 1.091 0.506 1.831 1.542 1.941 2.729l6.401 24.725h8.578l13.3-30.911h-8.536l-8.484 20.975z"></path>
<path d="M34.936 31.514h8.226l6.637-30.952h-8.132l-6.731 30.952z"></path>
<path d="M87.269 0.516c-1.532 0.005-2.907 0.929-3.463 2.332l-12.208 28.667h8.531l1.705-4.664h10.43l0.997 4.664 7.539-0.046-6.563-30.952h-6.967zM84.048 20.562l4.292-11.628 2.466 11.628h-6.757z"></path>
</symbol>
</defs>
</svg>
